<svg xmlns="http://www.w3.org/2000/svg" fill="none" viewBox="0 0 257 67"><path fill="#ECECE3" d="M229.996 60.312V16.014h8.007l-.426 15.334h1.448c.512-3.464 1.307-6.417 2.386-8.86 1.079-2.441 2.555-4.287 4.429-5.537 1.874-1.306 4.203-1.959 6.986-1.959.568 0 1.192.029 1.874.085.681.057 1.448.228 2.3.511l-.426 9.712a10.63 10.63 0 0 0-2.641-.682 13.517 13.517 0 0 0-2.47-.255c-2.272 0-4.203.653-5.793 1.959-1.59 1.25-2.925 3.01-4.004 5.282-1.022 2.215-1.817 4.798-2.385 7.752v20.956h-9.285ZM200.92 46.512c-3.521 0-6.645-.511-9.37-1.533-2.726-1.08-5.026-2.584-6.901-4.515-1.874-1.988-3.293-4.345-4.259-7.07-.965-2.784-1.448-5.907-1.448-9.371 0-3.465.483-6.645 1.448-9.541.966-2.953 2.329-5.509 4.089-7.667 1.817-2.158 4.032-3.833 6.645-5.026C193.793.596 196.803 0 200.153 0c3.124 0 5.907.511 8.349 1.533a15.601 15.601 0 0 1 6.304 4.686c1.703 2.044 2.981 4.628 3.833 7.752.852 3.066 1.164 6.673.937 10.818l-31.69.256c.171 4.543 1.307 7.979 3.408 10.307 2.272 2.613 5.509 3.92 9.711 3.92 1.761 0 3.266-.2 4.515-.597 1.25-.455 2.3-1.022 3.152-1.704a8.84 8.84 0 0 0 2.045-2.556 17.13 17.13 0 0 0 1.363-3.151l8.092 1.874c-.511 2.1-1.306 3.975-2.385 5.622-1.022 1.59-2.328 2.982-3.919 4.174-1.59 1.136-3.464 2.016-5.622 2.64-2.101.626-4.543.938-7.326.938Zm-12.693-27.26 22.745-.255c-.057-1.818-.369-3.436-.937-4.856-.909-2.215-2.215-3.862-3.919-4.94-1.703-1.08-3.663-1.62-5.877-1.62-2.499 0-4.686.654-6.56 1.96-1.817 1.25-3.237 3.095-4.259 5.537-.511 1.25-.909 2.64-1.193 4.174ZM152.946 61.42c-2.839 0-5.281-.568-7.326-1.704-1.987-1.136-3.606-2.697-4.855-4.685-1.25-1.988-2.187-4.316-2.811-6.985h-1.449l.256 12.267h-8.008V.255h9.286v14.056c0 1.42-.085 2.953-.256 4.6a85.102 85.102 0 0 1-.681 4.94 147.959 147.959 0 0 1-.767 4.941h1.619c.681-2.555 1.618-4.855 2.811-6.9 1.249-2.101 2.868-3.776 4.855-5.026 1.988-1.25 4.458-1.874 7.412-1.874 3.691 0 6.871.994 9.541 2.982 2.669 1.93 4.713 4.657 6.133 8.178 1.477 3.464 2.215 7.524 2.215 12.181 0 4.544-.71 8.547-2.13 12.012-1.363 3.464-3.379 6.19-6.048 8.178-2.669 1.93-5.935 2.896-9.797 2.896Zm-2.64-7.837c2.271 0 4.231-.625 5.878-1.874 1.646-1.25 2.896-3.01 3.748-5.282.908-2.328 1.363-5.026 1.363-8.093 0-3.01-.426-5.679-1.278-8.007-.852-2.329-2.101-4.146-3.748-5.452-1.59-1.363-3.55-2.045-5.878-2.045-1.647 0-3.152.341-4.515 1.023a11.796 11.796 0 0 0-3.493 2.555 17.434 17.434 0 0 0-2.47 3.578 21.082 21.082 0 0 0-1.448 4.004c-.341 1.363-.511 2.612-.511 3.748v1.193c0 1.533.255 3.18.766 4.94a18.773 18.773 0 0 0 2.385 4.77 13.085 13.085 0 0 0 3.919 3.579c1.533.908 3.294 1.363 5.282 1.363ZM51.054 60.313V16.016h7.837l-.511 13.8h1.533c.738-3.35 1.732-6.105 2.982-8.263 1.306-2.215 2.868-3.862 4.685-4.941 1.874-1.136 4.032-1.704 6.474-1.704 2.726 0 4.97.653 6.73 1.96 1.817 1.306 3.18 3.066 4.089 5.281.965 2.215 1.476 4.714 1.533 7.496h1.363c.738-3.237 1.76-5.934 3.067-8.092 1.363-2.215 3.038-3.862 5.026-4.941 1.988-1.136 4.202-1.704 6.644-1.704 2.329 0 4.373.483 6.134 1.448 1.76.909 3.237 2.272 4.43 4.09 1.192 1.817 2.073 4.088 2.64 6.814.625 2.67.937 5.765.937 9.286v23.767h-9.285V37.738c0-3.294-.284-6.02-.852-8.178-.568-2.158-1.448-3.776-2.641-4.855-1.192-1.08-2.697-1.619-4.514-1.619-2.045 0-3.862.71-5.452 2.13-1.534 1.363-2.783 3.265-3.749 5.707-.965 2.442-1.561 5.253-1.788 8.434v20.956H79.25V38.334c0-3.407-.284-6.218-.852-8.433-.568-2.272-1.448-3.975-2.641-5.111-1.193-1.136-2.698-1.704-4.515-1.704-2.158 0-4.032.738-5.622 2.215-1.534 1.42-2.755 3.38-3.663 5.878-.909 2.499-1.477 5.31-1.704 8.433v20.7h-9.2ZM21.978 46.512c-3.52 0-6.644-.511-9.37-1.533-2.726-1.08-5.026-2.584-6.9-4.515-1.875-1.988-3.294-4.345-4.26-7.07C.483 30.61 0 27.486 0 24.022c0-3.465.483-6.645 1.448-9.541.966-2.953 2.329-5.509 4.09-7.667 1.816-2.158 4.031-3.833 6.644-5.026C14.85.596 17.86 0 21.212 0c3.123 0 5.906.511 8.348 1.533a15.593 15.593 0 0 1 6.304 4.686c1.703 2.044 2.981 4.628 3.833 7.752.852 3.066 1.164 6.673.937 10.818l-31.69.256c.171 4.543 1.307 7.979 3.408 10.307 2.272 2.613 5.509 3.92 9.711 3.92 1.76 0 3.266-.2 4.515-.597 1.25-.455 2.3-1.022 3.152-1.704a8.827 8.827 0 0 0 2.045-2.556 17.043 17.043 0 0 0 1.363-3.151l8.092 1.874c-.51 2.1-1.306 3.975-2.385 5.622-1.022 1.59-2.328 2.982-3.919 4.174-1.59 1.136-3.464 2.016-5.622 2.64-2.101.626-4.543.938-7.326.938ZM9.285 19.252l22.745-.255c-.057-1.818-.369-3.436-.937-4.856-.909-2.215-2.215-3.862-3.918-4.94-1.704-1.08-3.663-1.62-5.878-1.62-2.5 0-4.686.654-6.56 1.96-1.817 1.25-3.237 3.095-4.259 5.537-.511 1.25-.909 2.64-1.193 4.174ZM181.576 54.35h38.547v5.963h-38.547zM3.11 60.307l6.46-6.46 6.46 6.46-6.46 6.46zM16.03 60.307l6.46-6.46 6.46 6.46-6.46 6.46z"/><path fill="#ECECE3" d="m28.95 60.307 6.46-6.46 6.46 6.46-6.46 6.46z"/></svg>