<svg width="204" height="254" viewBox="0 0 204 254" fill="none" xmlns="http://www.w3.org/2000/svg">
<path fill-rule="evenodd" clip-rule="evenodd" d="M107.301 2C121.91 2.00003 134.878 4.20925 146.204 8.62825C157.53 13.0473 166.803 19.1036 174.026 26.796C181.248 34.3245 185.762 42.9985 187.568 52.8183H155.559C152.933 46.1081 148.009 40.4614 140.787 35.8788C133.564 31.1325 122.649 28.7599 108.04 28.7599C93.267 28.7599 81.2023 31.5425 71.8461 37.1072C62.4899 42.5081 55.5955 50.2817 51.1635 60.429C46.8958 70.4126 44.7616 82.4423 44.7615 96.5175C44.7615 98.6471 44.8149 100.733 44.9201 102.775C46.6016 100.972 48.3543 99.2137 50.1782 97.5C58.8779 89.3166 68.9731 82.8513 80.4633 78.105C92.1175 73.195 105.085 70.7401 119.366 70.7401C133.974 70.7401 146.696 73.1951 157.529 78.105C168.527 82.8513 176.98 89.6444 182.89 98.4825C188.963 107.32 192 117.795 192 129.906C192 142.344 188.635 153.31 181.905 162.803C175.175 172.296 165.654 179.742 153.343 185.143C141.197 190.381 126.752 193 110.01 193C88.835 193 71.025 188.99 56.5802 180.971C42.1355 172.787 31.2199 161.494 23.8334 147.091C16.6111 132.688 13 116.158 13 97.5C13 78.842 16.6111 62.3117 23.8334 47.909C31.0558 33.5064 41.6427 22.2948 55.5949 14.2751C69.7114 6.09168 86.9473 2 107.301 2ZM112.964 97.5C98.6831 97.5001 85.4691 100.937 73.3225 107.811C64.1319 113.012 56.1161 119.385 49.2748 126.929C50.1149 129.41 51.0731 131.793 52.1478 134.079C57.0721 144.554 64.3768 152.574 74.0613 158.139C83.7458 163.54 95.729 166.24 110.01 166.24C120.843 166.24 129.871 164.768 137.093 161.822C144.48 158.712 149.979 154.456 153.59 149.055C157.365 143.654 159.253 137.598 159.253 130.888C159.253 124.505 157.611 118.859 154.329 113.949C151.046 108.875 145.957 104.865 139.063 101.918C132.333 98.9726 123.633 97.5 112.964 97.5Z" fill="#712B2B"/>
<rect y="237" width="24.0416" height="24.0416" transform="rotate(-45 0 237)" fill="#F28729"/>
<rect x="34" y="237" width="24.0416" height="24.0416" transform="rotate(-45 34 237)" fill="#F28729"/>
<rect x="68" y="237" width="24.0416" height="24.0416" transform="rotate(-45 68 237)" fill="#F28729"/>
<rect x="102" y="237" width="24.0416" height="24.0416" transform="rotate(-45 102 237)" fill="#F28729"/>
<rect x="136" y="237" width="24.0416" height="24.0416" transform="rotate(-45 136 237)" fill="#F28729"/>
<rect x="170" y="237" width="24.0416" height="24.0416" transform="rotate(-45 170 237)" fill="#F28729"/>
</svg>
