<svg width="176" height="254" viewBox="0 0 176 254" fill="none" xmlns="http://www.w3.org/2000/svg">
<path d="M93.6536 2C109.549 2.00003 123.315 4.13134 134.95 8.39202C146.748 12.4888 155.844 18.3065 162.235 25.8445C168.625 33.2187 171.821 41.9863 171.821 52.1462C171.821 60.6674 169.281 68.3698 164.201 75.2524C159.285 81.9711 151.747 87.2971 141.587 91.23C138.669 92.3593 135.542 93.3248 132.205 94.1298C135.763 94.7882 139.136 95.6236 142.324 96.6378C153.139 99.9153 161.415 104.995 167.151 111.878C173.05 118.597 176 126.873 176 136.705C176 147.684 172.641 157.435 165.922 165.956C159.203 174.478 149.452 181.197 136.67 186.113C124.052 190.865 108.566 193.241 90.2123 193.241C72.3503 193.241 56.782 190.701 43.5084 185.621C30.2349 180.377 19.8286 173.085 12.2905 163.744C4.9163 154.403 0.819441 143.505 0 131.051H32.6927C34.1677 142.522 39.7394 151.372 49.4078 157.599C59.0763 163.662 72.6781 166.694 90.2123 166.694C107.747 166.694 120.939 163.826 129.788 158.09C138.637 152.355 143.061 144.489 143.061 134.493C143.061 128.593 141.504 123.677 138.391 119.744C135.441 115.647 130.443 112.534 123.397 110.403C116.514 108.273 107.173 107.208 95.3743 107.208H61.9441V83.1183H95.3743C110.614 83.1182 121.676 80.6601 128.559 75.744C135.441 70.664 138.883 64.1907 138.883 56.325C138.883 47.6399 135.031 40.8389 127.33 35.9227C119.791 31.0066 107.992 28.5485 91.933 28.5484C76.2011 28.5484 63.6648 31.4982 54.324 37.3976C45.1471 43.1332 39.6574 51.4088 37.8547 62.2244H5.16201C6.30912 50.9172 10.406 40.757 17.4525 31.744C24.6629 22.5671 34.6592 15.3566 47.4413 10.1127C60.3873 4.7049 75.7915 2 93.6536 2Z" fill="#712B2B"/>
<rect x="37" y="237" width="24.0416" height="24.0416" transform="rotate(-45 37 237)" fill="#F28729"/>
<rect x="71" y="237" width="24.0416" height="24.0416" transform="rotate(-45 71 237)" fill="#F28729"/>
<rect x="105" y="237" width="24.0416" height="24.0416" transform="rotate(-45 105 237)" fill="#F28729"/>
</svg>
