<svg width="176" height="254" viewBox="0 0 176 254" fill="none" xmlns="http://www.w3.org/2000/svg">
<path d="M160.999 28.8234H47.3369L39.7041 86.3987C40.9902 85.2418 42.3376 84.0988 43.7495 82.9734C50.4162 77.7925 58.4168 73.6143 67.7501 70.4389C77.2501 67.0964 87.917 65.4248 99.7502 65.4248C116.083 65.4249 129.917 68.2663 141.25 73.9486C152.583 79.4637 161.167 86.984 167 96.5101C173 106.036 176 116.817 176 128.85C176 141.384 172.5 152.498 165.5 162.191C158.5 171.885 148.583 179.573 135.75 185.255C123.083 190.77 108 193.528 90.4999 193.528C72.9999 193.528 57.8327 190.937 44.9993 185.756C32.1662 180.575 21.9993 173.556 14.4994 164.698C7.16638 155.673 2.6667 145.646 1 134.616H34.2499C36.5833 144.476 42.5833 152.247 52.2498 157.93C61.9165 163.612 74.6665 166.453 90.4999 166.453C101.166 166.453 110.333 164.949 117.999 161.94C125.833 158.765 131.916 154.42 136.25 148.905C140.583 143.222 142.75 136.537 142.75 128.85C142.75 121.329 140.917 114.811 137.25 109.296C133.75 103.613 128.333 99.2684 121 96.2601C113.833 93.0847 104.667 91.4961 93.5002 91.4961C84.3335 91.4961 76.0829 92.5831 68.7495 94.7558C61.583 96.9284 55.3328 99.6859 49.9995 103.028C44.833 106.371 40.4998 109.881 36.9998 113.558H9.50025L24.0001 2H160.999V28.8234Z" fill="#712B2B"/>
<rect x="3" y="237" width="24.0416" height="24.0416" transform="rotate(-45 3 237)" fill="#F28729"/>
<rect x="37" y="237" width="24.0416" height="24.0416" transform="rotate(-45 37 237)" fill="#F28729"/>
<rect x="71" y="237" width="24.0416" height="24.0416" transform="rotate(-45 71 237)" fill="#F28729"/>
<rect x="105" y="237" width="24.0416" height="24.0416" transform="rotate(-45 105 237)" fill="#F28729"/>
<rect x="139" y="237" width="24.0416" height="24.0416" transform="rotate(-45 139 237)" fill="#F28729"/>
</svg>
