<svg width="177" height="254" viewBox="0 0 177 254" fill="none" xmlns="http://www.w3.org/2000/svg">
<path d="M90 0C106 0 120 2.5 132 7.5C144.167 12.5 153.583 19.5 160.25 28.5C167.083 37.5 170.5 47.9167 170.5 59.75C170.5 68.9167 168.25 77.4167 163.75 85.25C159.417 93.0833 152.167 101.083 142 109.25C132 117.25 118.417 126.333 101.25 136.5L55.5156 163.5H176.25V191H1.75V167L81.5 118.5C95.5 110 106.5 102.667 114.5 96.5C122.667 90.1667 128.5 84.25 132 78.75C135.5 73.25 137.25 67.4167 137.25 61.25C137.25 54.75 135.5 48.9167 132 43.75C128.5 38.5833 123.167 34.5 116 31.5C109 28.5 100 27 89 27C76.5 27 66.25 28.8333 58.25 32.5C50.25 36.1667 44.25 41.1667 40.25 47.5C36.4167 53.6667 34.0833 60.5 33.25 68H0C1 54.1667 5.41667 42.1667 13.25 32C21.25 21.8333 31.8333 14 45 8.5C58.1667 2.83333 73.1667 0 90 0Z" fill="#712B2B"/>
<rect x="54" y="237" width="24.0416" height="24.0416" transform="rotate(-45 54 237)" fill="#F28729"/>
<rect x="88" y="237" width="24.0416" height="24.0416" transform="rotate(-45 88 237)" fill="#F28729"/>
</svg>
